<mxfile host="drawio-plugin" modified="2024-06-04T18:56:12.805Z" agent="Mozilla/5.0 (Windows NT 10.0; Win64; x64) AppleWebKit/537.36 (KHTML, like Gecko) Chrome/122.0.0.0 Safari/537.36" etag="N4PFsU4Vu1rilEbD7FXg" version="22.1.22" type="embed">
  <diagram name="페이지-1" id="1g7UtiL25xNq1P0q8q4Y">
    <mxGraphModel dx="992" dy="1925" grid="1" gridSize="10" guides="1" tooltips="1" connect="1" arrows="1" fold="1" page="1" pageScale="1" pageWidth="827" pageHeight="1169" math="0" shadow="0">
      <root>
        <mxCell id="0" />
        <mxCell id="1" parent="0" />
        <mxCell id="j65EMW2SuawNJBO0TKCp-4" value="&lt;font style=&quot;font-size: 8px;&quot;&gt;게시글 목록 조회&lt;/font&gt;" style="ellipse;whiteSpace=wrap;html=1;" parent="1" vertex="1">
          <mxGeometry x="141" y="-1070" width="70" height="30" as="geometry" />
        </mxCell>
        <mxCell id="j65EMW2SuawNJBO0TKCp-5" value="&lt;font style=&quot;font-size: 10px;&quot;&gt;게시글 작성&lt;/font&gt;" style="ellipse;whiteSpace=wrap;html=1;" parent="1" vertex="1">
          <mxGeometry x="141" y="-756" width="70" height="30" as="geometry" />
        </mxCell>
        <mxCell id="21" style="rounded=0;orthogonalLoop=1;jettySize=auto;html=1;exitX=1;exitY=0.5;exitDx=0;exitDy=0;entryX=0;entryY=0.5;entryDx=0;entryDy=0;" parent="1" source="j65EMW2SuawNJBO0TKCp-7" target="17" edge="1">
          <mxGeometry relative="1" as="geometry" />
        </mxCell>
        <mxCell id="22" style="rounded=0;orthogonalLoop=1;jettySize=auto;html=1;exitX=1;exitY=0.5;exitDx=0;exitDy=0;entryX=0;entryY=0.5;entryDx=0;entryDy=0;" parent="1" source="j65EMW2SuawNJBO0TKCp-7" target="18" edge="1">
          <mxGeometry relative="1" as="geometry" />
        </mxCell>
        <mxCell id="23" style="rounded=0;orthogonalLoop=1;jettySize=auto;html=1;exitX=1;exitY=0.5;exitDx=0;exitDy=0;entryX=0;entryY=0.5;entryDx=0;entryDy=0;" parent="1" source="j65EMW2SuawNJBO0TKCp-7" target="19" edge="1">
          <mxGeometry relative="1" as="geometry" />
        </mxCell>
        <mxCell id="24" style="rounded=0;orthogonalLoop=1;jettySize=auto;html=1;exitX=1;exitY=0.5;exitDx=0;exitDy=0;entryX=0;entryY=0.5;entryDx=0;entryDy=0;" parent="1" source="j65EMW2SuawNJBO0TKCp-7" target="20" edge="1">
          <mxGeometry relative="1" as="geometry" />
        </mxCell>
        <mxCell id="j65EMW2SuawNJBO0TKCp-7" value="&lt;font style=&quot;font-size: 10px;&quot;&gt;게시글 조회&lt;/font&gt;" style="ellipse;whiteSpace=wrap;html=1;" parent="1" vertex="1">
          <mxGeometry x="141" y="-1030" width="70" height="30" as="geometry" />
        </mxCell>
        <mxCell id="j65EMW2SuawNJBO0TKCp-31" style="rounded=0;orthogonalLoop=1;jettySize=auto;html=1;exitX=1;exitY=0.5;exitDx=0;exitDy=0;dashed=1;entryX=0;entryY=0.5;entryDx=0;entryDy=0;" parent="1" source="j65EMW2SuawNJBO0TKCp-9" target="j65EMW2SuawNJBO0TKCp-13" edge="1">
          <mxGeometry relative="1" as="geometry">
            <mxPoint x="280" y="-970" as="targetPoint" />
          </mxGeometry>
        </mxCell>
        <mxCell id="j65EMW2SuawNJBO0TKCp-9" value="&lt;font style=&quot;font-size: 10px;&quot;&gt;게시글 수정&lt;/font&gt;" style="ellipse;whiteSpace=wrap;html=1;" parent="1" vertex="1">
          <mxGeometry x="141" y="-686" width="70" height="30" as="geometry" />
        </mxCell>
        <mxCell id="j65EMW2SuawNJBO0TKCp-30" style="rounded=0;orthogonalLoop=1;jettySize=auto;html=1;exitX=1;exitY=0.5;exitDx=0;exitDy=0;entryX=0;entryY=0.5;entryDx=0;entryDy=0;dashed=1;" parent="1" source="j65EMW2SuawNJBO0TKCp-11" target="j65EMW2SuawNJBO0TKCp-13" edge="1">
          <mxGeometry relative="1" as="geometry" />
        </mxCell>
        <mxCell id="j65EMW2SuawNJBO0TKCp-11" value="&lt;font style=&quot;font-size: 10px;&quot;&gt;게시글 삭제&lt;/font&gt;" style="ellipse;whiteSpace=wrap;html=1;" parent="1" vertex="1">
          <mxGeometry x="141" y="-616" width="70" height="30" as="geometry" />
        </mxCell>
        <mxCell id="j65EMW2SuawNJBO0TKCp-13" value="&lt;span style=&quot;font-size: 10px;&quot;&gt;토큰 검사&lt;/span&gt;" style="ellipse;whiteSpace=wrap;html=1;" parent="1" vertex="1">
          <mxGeometry x="510" y="-770" width="70" height="30" as="geometry" />
        </mxCell>
        <mxCell id="j65EMW2SuawNJBO0TKCp-38" style="rounded=0;orthogonalLoop=1;jettySize=auto;html=1;exitX=1;exitY=0.5;exitDx=0;exitDy=0;entryX=0;entryY=0.5;entryDx=0;entryDy=0;dashed=1;" parent="1" source="j65EMW2SuawNJBO0TKCp-17" target="j65EMW2SuawNJBO0TKCp-36" edge="1">
          <mxGeometry relative="1" as="geometry" />
        </mxCell>
        <mxCell id="j65EMW2SuawNJBO0TKCp-39" style="rounded=0;orthogonalLoop=1;jettySize=auto;html=1;exitX=1;exitY=0.5;exitDx=0;exitDy=0;entryX=0;entryY=0.5;entryDx=0;entryDy=0;dashed=1;" parent="1" source="j65EMW2SuawNJBO0TKCp-17" target="j65EMW2SuawNJBO0TKCp-37" edge="1">
          <mxGeometry relative="1" as="geometry" />
        </mxCell>
        <mxCell id="j65EMW2SuawNJBO0TKCp-17" value="&lt;font style=&quot;font-size: 10px;&quot;&gt;회원가입&lt;/font&gt;" style="ellipse;whiteSpace=wrap;html=1;" parent="1" vertex="1">
          <mxGeometry x="141" y="-1150" width="70" height="30" as="geometry" />
        </mxCell>
        <mxCell id="j65EMW2SuawNJBO0TKCp-24" style="rounded=0;orthogonalLoop=1;jettySize=auto;html=1;exitX=0.5;exitY=0.5;exitDx=0;exitDy=0;exitPerimeter=0;entryX=0;entryY=0.5;entryDx=0;entryDy=0;" parent="1" source="j65EMW2SuawNJBO0TKCp-20" target="j65EMW2SuawNJBO0TKCp-17" edge="1">
          <mxGeometry relative="1" as="geometry" />
        </mxCell>
        <mxCell id="j65EMW2SuawNJBO0TKCp-25" style="rounded=0;orthogonalLoop=1;jettySize=auto;html=1;exitX=0.5;exitY=0.5;exitDx=0;exitDy=0;exitPerimeter=0;entryX=0;entryY=0.5;entryDx=0;entryDy=0;" parent="1" source="j65EMW2SuawNJBO0TKCp-20" target="j65EMW2SuawNJBO0TKCp-4" edge="1">
          <mxGeometry relative="1" as="geometry" />
        </mxCell>
        <mxCell id="j65EMW2SuawNJBO0TKCp-26" style="rounded=0;orthogonalLoop=1;jettySize=auto;html=1;exitX=0.5;exitY=0.5;exitDx=0;exitDy=0;exitPerimeter=0;entryX=0;entryY=0.5;entryDx=0;entryDy=0;" parent="1" source="j65EMW2SuawNJBO0TKCp-20" target="j65EMW2SuawNJBO0TKCp-5" edge="1">
          <mxGeometry relative="1" as="geometry" />
        </mxCell>
        <mxCell id="j65EMW2SuawNJBO0TKCp-27" style="rounded=0;orthogonalLoop=1;jettySize=auto;html=1;exitX=0.5;exitY=0.5;exitDx=0;exitDy=0;exitPerimeter=0;entryX=0;entryY=0.5;entryDx=0;entryDy=0;" parent="1" source="j65EMW2SuawNJBO0TKCp-20" target="j65EMW2SuawNJBO0TKCp-7" edge="1">
          <mxGeometry relative="1" as="geometry" />
        </mxCell>
        <mxCell id="j65EMW2SuawNJBO0TKCp-28" style="rounded=0;orthogonalLoop=1;jettySize=auto;html=1;exitX=0.5;exitY=0.5;exitDx=0;exitDy=0;exitPerimeter=0;entryX=0;entryY=0.5;entryDx=0;entryDy=0;" parent="1" source="j65EMW2SuawNJBO0TKCp-20" target="j65EMW2SuawNJBO0TKCp-9" edge="1">
          <mxGeometry relative="1" as="geometry" />
        </mxCell>
        <mxCell id="j65EMW2SuawNJBO0TKCp-29" style="rounded=0;orthogonalLoop=1;jettySize=auto;html=1;exitX=0.5;exitY=0.5;exitDx=0;exitDy=0;exitPerimeter=0;entryX=0;entryY=0.5;entryDx=0;entryDy=0;" parent="1" source="j65EMW2SuawNJBO0TKCp-20" target="j65EMW2SuawNJBO0TKCp-11" edge="1">
          <mxGeometry relative="1" as="geometry" />
        </mxCell>
        <mxCell id="4" style="rounded=0;orthogonalLoop=1;jettySize=auto;html=1;exitX=0.5;exitY=0.5;exitDx=0;exitDy=0;exitPerimeter=0;entryX=0;entryY=0.5;entryDx=0;entryDy=0;" parent="1" source="j65EMW2SuawNJBO0TKCp-20" target="3" edge="1">
          <mxGeometry relative="1" as="geometry" />
        </mxCell>
        <mxCell id="j65EMW2SuawNJBO0TKCp-20" value="유저" style="shape=umlActor;verticalLabelPosition=bottom;verticalAlign=top;html=1;outlineConnect=0;" parent="1" vertex="1">
          <mxGeometry x="30" y="-1045" width="30" height="60" as="geometry" />
        </mxCell>
        <mxCell id="j65EMW2SuawNJBO0TKCp-33" style="rounded=0;orthogonalLoop=1;jettySize=auto;html=1;exitX=1;exitY=0.5;exitDx=0;exitDy=0;entryX=0;entryY=0.5;entryDx=0;entryDy=0;dashed=1;" parent="1" source="j65EMW2SuawNJBO0TKCp-5" target="j65EMW2SuawNJBO0TKCp-13" edge="1">
          <mxGeometry relative="1" as="geometry">
            <mxPoint x="260" y="-1025" as="sourcePoint" />
            <mxPoint x="330" y="-1070" as="targetPoint" />
          </mxGeometry>
        </mxCell>
        <mxCell id="10" style="rounded=0;orthogonalLoop=1;jettySize=auto;html=1;exitX=1;exitY=0.5;exitDx=0;exitDy=0;entryX=0;entryY=0.5;entryDx=0;entryDy=0;endArrow=none;endFill=0;" parent="1" source="j65EMW2SuawNJBO0TKCp-36" target="5" edge="1">
          <mxGeometry relative="1" as="geometry" />
        </mxCell>
        <mxCell id="j65EMW2SuawNJBO0TKCp-36" value="&lt;span style=&quot;font-size: 10px;&quot;&gt;ID 검사&lt;/span&gt;" style="ellipse;whiteSpace=wrap;html=1;" parent="1" vertex="1">
          <mxGeometry x="300" y="-1150" width="70" height="30" as="geometry" />
        </mxCell>
        <mxCell id="j65EMW2SuawNJBO0TKCp-37" value="&lt;span style=&quot;font-size: 10px;&quot;&gt;PW 검사&lt;/span&gt;" style="ellipse;whiteSpace=wrap;html=1;" parent="1" vertex="1">
          <mxGeometry x="300" y="-1110" width="70" height="30" as="geometry" />
        </mxCell>
        <mxCell id="3" value="&lt;font style=&quot;font-size: 10px;&quot;&gt;로그인&lt;/font&gt;" style="ellipse;whiteSpace=wrap;html=1;" parent="1" vertex="1">
          <mxGeometry x="141" y="-1110" width="70" height="30" as="geometry" />
        </mxCell>
        <mxCell id="5" value="DB" style="rounded=0;whiteSpace=wrap;html=1;" parent="1" vertex="1">
          <mxGeometry x="700" y="-1140" width="90" height="60" as="geometry" />
        </mxCell>
        <mxCell id="9" style="rounded=0;orthogonalLoop=1;jettySize=auto;html=1;exitX=1;exitY=0.5;exitDx=0;exitDy=0;entryX=0;entryY=0.5;entryDx=0;entryDy=0;endArrow=none;endFill=0;" parent="1" source="6" target="5" edge="1">
          <mxGeometry relative="1" as="geometry" />
        </mxCell>
        <mxCell id="6" value="&lt;span style=&quot;font-size: 10px;&quot;&gt;인증&lt;/span&gt;" style="ellipse;whiteSpace=wrap;html=1;" parent="1" vertex="1">
          <mxGeometry x="300" y="-1070" width="70" height="30" as="geometry" />
        </mxCell>
        <mxCell id="8" style="rounded=0;orthogonalLoop=1;jettySize=auto;html=1;exitX=1;exitY=0.5;exitDx=0;exitDy=0;entryX=0;entryY=0.5;entryDx=0;entryDy=0;dashed=1;" parent="1" source="3" target="6" edge="1">
          <mxGeometry relative="1" as="geometry">
            <mxPoint x="211" y="-1110" as="sourcePoint" />
            <mxPoint x="300" y="-1070" as="targetPoint" />
          </mxGeometry>
        </mxCell>
        <mxCell id="11" style="rounded=0;orthogonalLoop=1;jettySize=auto;html=1;exitX=1;exitY=0.5;exitDx=0;exitDy=0;entryX=0;entryY=0.5;entryDx=0;entryDy=0;endArrow=none;endFill=0;" parent="1" source="j65EMW2SuawNJBO0TKCp-5" target="5" edge="1">
          <mxGeometry relative="1" as="geometry">
            <mxPoint x="330" y="-980" as="sourcePoint" />
            <mxPoint x="660" y="-945" as="targetPoint" />
          </mxGeometry>
        </mxCell>
        <mxCell id="12" style="rounded=0;orthogonalLoop=1;jettySize=auto;html=1;exitX=1;exitY=0.5;exitDx=0;exitDy=0;entryX=0;entryY=0.5;entryDx=0;entryDy=0;endArrow=none;endFill=0;" parent="1" source="j65EMW2SuawNJBO0TKCp-7" target="5" edge="1">
          <mxGeometry relative="1" as="geometry">
            <mxPoint x="211" y="-955" as="sourcePoint" />
            <mxPoint x="700" y="-960" as="targetPoint" />
          </mxGeometry>
        </mxCell>
        <mxCell id="13" style="rounded=0;orthogonalLoop=1;jettySize=auto;html=1;exitX=1;exitY=0.5;exitDx=0;exitDy=0;entryX=0;entryY=0.5;entryDx=0;entryDy=0;endArrow=none;endFill=0;" parent="1" source="j65EMW2SuawNJBO0TKCp-9" target="5" edge="1">
          <mxGeometry relative="1" as="geometry">
            <mxPoint x="280" y="-945" as="sourcePoint" />
            <mxPoint x="769" y="-990" as="targetPoint" />
          </mxGeometry>
        </mxCell>
        <mxCell id="14" style="rounded=0;orthogonalLoop=1;jettySize=auto;html=1;exitX=1;exitY=0.5;exitDx=0;exitDy=0;entryX=0;entryY=0.5;entryDx=0;entryDy=0;endArrow=none;endFill=0;" parent="1" source="j65EMW2SuawNJBO0TKCp-11" target="5" edge="1">
          <mxGeometry relative="1" as="geometry">
            <mxPoint x="240" y="-880" as="sourcePoint" />
            <mxPoint x="729" y="-970" as="targetPoint" />
          </mxGeometry>
        </mxCell>
        <mxCell id="16" style="edgeStyle=orthogonalEdgeStyle;rounded=0;orthogonalLoop=1;jettySize=auto;html=1;exitX=0.5;exitY=1;exitDx=0;exitDy=0;" parent="1" source="j65EMW2SuawNJBO0TKCp-11" target="j65EMW2SuawNJBO0TKCp-11" edge="1">
          <mxGeometry relative="1" as="geometry" />
        </mxCell>
        <mxCell id="17" value="&lt;span style=&quot;font-size: 10px;&quot;&gt;댓글 조회&lt;/span&gt;" style="ellipse;whiteSpace=wrap;html=1;" parent="1" vertex="1">
          <mxGeometry x="300" y="-1010" width="70" height="30" as="geometry" />
        </mxCell>
        <mxCell id="18" value="&lt;span style=&quot;font-size: 10px;&quot;&gt;댓글 작성&lt;/span&gt;" style="ellipse;whiteSpace=wrap;html=1;" parent="1" vertex="1">
          <mxGeometry x="300" y="-960" width="70" height="30" as="geometry" />
        </mxCell>
        <mxCell id="19" value="&lt;span style=&quot;font-size: 10px;&quot;&gt;댓글 수정&lt;/span&gt;" style="ellipse;whiteSpace=wrap;html=1;" parent="1" vertex="1">
          <mxGeometry x="300" y="-910" width="70" height="30" as="geometry" />
        </mxCell>
        <mxCell id="20" value="&lt;span style=&quot;font-size: 10px;&quot;&gt;댓글 삭제&lt;/span&gt;" style="ellipse;whiteSpace=wrap;html=1;" parent="1" vertex="1">
          <mxGeometry x="300" y="-860" width="70" height="30" as="geometry" />
        </mxCell>
        <mxCell id="25" style="rounded=0;orthogonalLoop=1;jettySize=auto;html=1;exitX=1;exitY=0.5;exitDx=0;exitDy=0;entryX=0;entryY=0.5;entryDx=0;entryDy=0;dashed=1;" parent="1" source="18" target="j65EMW2SuawNJBO0TKCp-13" edge="1">
          <mxGeometry relative="1" as="geometry">
            <mxPoint x="430" y="-993" as="sourcePoint" />
            <mxPoint x="470" y="-822" as="targetPoint" />
          </mxGeometry>
        </mxCell>
        <mxCell id="26" style="rounded=0;orthogonalLoop=1;jettySize=auto;html=1;exitX=1;exitY=0.5;exitDx=0;exitDy=0;dashed=1;entryX=0;entryY=0.5;entryDx=0;entryDy=0;" parent="1" source="19" target="j65EMW2SuawNJBO0TKCp-13" edge="1">
          <mxGeometry relative="1" as="geometry">
            <mxPoint x="470" y="-827" as="targetPoint" />
            <mxPoint x="430" y="-923" as="sourcePoint" />
          </mxGeometry>
        </mxCell>
        <mxCell id="27" style="rounded=0;orthogonalLoop=1;jettySize=auto;html=1;exitX=1;exitY=0.5;exitDx=0;exitDy=0;dashed=1;entryX=0;entryY=0.5;entryDx=0;entryDy=0;" parent="1" source="20" target="j65EMW2SuawNJBO0TKCp-13" edge="1">
          <mxGeometry relative="1" as="geometry">
            <mxPoint x="430" y="-853" as="sourcePoint" />
            <mxPoint x="460" y="-797" as="targetPoint" />
          </mxGeometry>
        </mxCell>
        <mxCell id="28" value="&lt;span style=&quot;font-size: 10px;&quot;&gt;토큰 발급&lt;/span&gt;" style="ellipse;whiteSpace=wrap;html=1;" parent="1" vertex="1">
          <mxGeometry x="510" y="-830" width="70" height="30" as="geometry" />
        </mxCell>
        <mxCell id="29" style="rounded=0;orthogonalLoop=1;jettySize=auto;html=1;exitX=1;exitY=0.5;exitDx=0;exitDy=0;entryX=0;entryY=0.5;entryDx=0;entryDy=0;dashed=1;" parent="1" source="6" target="28" edge="1">
          <mxGeometry relative="1" as="geometry">
            <mxPoint x="450" y="-1030" as="sourcePoint" />
            <mxPoint x="590" y="-840" as="targetPoint" />
          </mxGeometry>
        </mxCell>
        <mxCell id="31" style="rounded=0;orthogonalLoop=1;jettySize=auto;html=1;exitX=0;exitY=0.5;exitDx=0;exitDy=0;entryX=1;entryY=0.5;entryDx=0;entryDy=0;startArrow=none;startFill=0;endArrow=none;endFill=0;" parent="1" source="30" target="28" edge="1">
          <mxGeometry relative="1" as="geometry" />
        </mxCell>
        <mxCell id="30" value="서버" style="rounded=0;whiteSpace=wrap;html=1;" parent="1" vertex="1">
          <mxGeometry x="700" y="-785" width="90" height="60" as="geometry" />
        </mxCell>
        <mxCell id="32" style="rounded=0;orthogonalLoop=1;jettySize=auto;html=1;exitX=0;exitY=0.5;exitDx=0;exitDy=0;entryX=1;entryY=0.5;entryDx=0;entryDy=0;startArrow=none;startFill=0;endArrow=none;endFill=0;" parent="1" source="30" target="j65EMW2SuawNJBO0TKCp-13" edge="1">
          <mxGeometry relative="1" as="geometry">
            <mxPoint x="660" y="-656" as="sourcePoint" />
            <mxPoint x="560" y="-716" as="targetPoint" />
          </mxGeometry>
        </mxCell>
        <mxCell id="33" style="rounded=0;orthogonalLoop=1;jettySize=auto;html=1;exitX=1;exitY=0.5;exitDx=0;exitDy=0;entryX=0;entryY=0.5;entryDx=0;entryDy=0;endArrow=none;endFill=0;" edge="1" parent="1" source="17" target="5">
          <mxGeometry relative="1" as="geometry">
            <mxPoint x="320" y="-935" as="sourcePoint" />
            <mxPoint x="809" y="-1030" as="targetPoint" />
          </mxGeometry>
        </mxCell>
      </root>
    </mxGraphModel>
  </diagram>
</mxfile>
